<?xml version="1.0" encoding="UTF-8"?>
<svg width="100px" height="100px" viewBox="0 0 100 100" version="1.1" xmlns="http://www.w3.org/2000/svg" xmlns:xlink="http://www.w3.org/1999/xlink">
    <!-- Generator: Sketch 51.3 (57544) - http://www.bohemiancoding.com/sketch -->
    <title>padlock</title>
    <desc>Created with Sketch.</desc>
    <defs></defs>
    <g id="padlock" stroke="none" stroke-width="1" fill="none" fill-rule="evenodd">
        <path d="M71.8542172,37.88729 L62.69933,37.88729 L62.69933,32.9656704 C62.69933,24.757492 56.2801309,18.1548872 48.4271086,18.1548872 C40.5740863,18.1548872 34.1548872,24.757492 34.1548872,32.9656704 L34.1548872,56.5625 L25,56.5625 L25,32.9656704 C25,19.7582049 35.4593658,9 48.4271086,9 C61.3948513,9 71.8542172,19.7582049 71.8542172,32.9656704 L71.8542172,37.88729 Z" id="shackle" fill="#FFFFFF" fill-rule="nonzero"></path>
        <path d="M21.2692308,46 L75.7307692,46 C76.9840308,46 78,47.0203743 78,48.2790698 L78,92.7209302 C78,93.9796257 76.9840308,95 75.7307692,95 L21.2692308,95 C20.0159692,95 19,93.9796257 19,92.7209302 L19,48.2790698 C19,47.0203743 20.0159692,46 21.2692308,46 Z M42,65.9535037 C42,68.5272818 43.4076952,70.7744589 45.5,71.9767525 L45.5,80.6821654 C45.5,81.9622701 46.5446689,83 47.8333333,83 L50.1666667,83 C51.4553311,83 52.5,81.9622701 52.5,80.6821654 L52.5,71.9767525 C54.5923048,70.7744589 56,68.5272818 56,65.9535037 C56,62.1131897 52.8659932,59 49,59 C45.1340068,59 42,62.1131897 42,65.9535037 Z" id="body" fill="#FFFFFF" fill-rule="nonzero"></path>
    </g>
</svg>